<svg xmlns="http://www.w3.org/2000/svg" viewBox="0 0 32 32">
  <defs>
    <linearGradient id="flameGrad" x1="0%" y1="100%" x2="0%" y2="0%">
      <stop offset="0%" style="stop-color:#f97316"/>
      <stop offset="100%" style="stop-color:#facc15"/>
    </linearGradient>
  </defs>
  <!-- Flame/Growth symbol -->
  <path d="M16 2 C16 2 8 12 8 18 C8 24 11 28 16 28 C21 28 24 24 24 18 C24 12 16 2 16 2 Z M16 24 C13 24 12 21 12 18 C12 15 16 8 16 8 C16 8 20 15 20 18 C20 21 19 24 16 24 Z" fill="url(#flameGrad)"/>
  <!-- Inner flame/core -->
  <path d="M16 12 C16 12 13 16 13 19 C13 22 14.5 23 16 23 C17.5 23 19 22 19 19 C19 16 16 12 16 12 Z" fill="#1e293b"/>
</svg>
